<svg xmlns="http://www.w3.org/2000/svg" width="16" height="16" viewBox="0 0 16 16">
  <rect width="16" height="16" rx="3" fill="#146B3D"></rect>
  <g transform="translate(8,8) scale(0.052) translate(-157,-200)">
    <g transform="translate(157,200) rotate(11)"><rect x="-13" y="-72" width="26" height="22" rx="6" fill="#FFFFFF"></rect><rect x="-13" y="-72" width="26" height="22" rx="6" fill="#FFFFFF" transform="rotate(45)"></rect><rect x="-13" y="-72" width="26" height="22" rx="6" fill="#FFFFFF" transform="rotate(90)"></rect><rect x="-13" y="-72" width="26" height="22" rx="6" fill="#FFFFFF" transform="rotate(135)"></rect><rect x="-13" y="-72" width="26" height="22" rx="6" fill="#FFFFFF" transform="rotate(180)"></rect><rect x="-13" y="-72" width="26" height="22" rx="6" fill="#FFFFFF" transform="rotate(225)"></rect><rect x="-13" y="-72" width="26" height="22" rx="6" fill="#FFFFFF" transform="rotate(270)"></rect><rect x="-13" y="-72" width="26" height="22" rx="6" fill="#FFFFFF" transform="rotate(315)"></rect><circle r="54" fill="#FFFFFF"></circle><circle r="21" fill="#146B3D"></circle><circle r="8" fill="#FFFFFF"></circle></g>
  </g>
</svg>